<svg width="36" height="36" viewBox="0 0 36 36" fill="none" xmlns="http://www.w3.org/2000/svg">
<path d="M4.44788 27.9254H6.19981C6.60521 27.9254 6.77896 27.8543 7.09749 27.5985L8.06757 26.8735L8.09652 26.902C8.63224 27.4279 9.35618 27.5274 10.0946 27.2147L14.9015 25.2673C15.2635 25.1252 15.4373 24.9972 15.6544 24.784L29.5106 11.2802C30.8716 9.95826 30.8571 8.40888 29.4817 7.04429L26.4411 4.03081C25.0512 2.68043 23.473 2.652 22.112 3.97395L8.24131 17.4777C8.02413 17.6767 7.89382 17.8331 7.74903 18.1885L5.72201 22.9077C5.41795 23.6042 5.49035 24.3007 6.02606 24.8409L4.02799 26.9162C3.59363 27.3568 3.81081 27.9254 4.44788 27.9254ZM23.5743 5.56598C23.9942 5.18218 24.4865 5.15375 24.8774 5.53755L27.9324 8.56524C28.3234 8.96325 28.2944 9.44654 27.889 9.84455L26.8031 10.8964L22.4884 6.63207L23.5743 5.56598ZM10.4855 18.3306L21.1274 7.95402L25.4421 12.2184L14.8002 22.595L10.4855 18.3306ZM9.87741 25.0114C9.58784 25.1109 9.37066 25.1109 9.11004 24.8551L8.12548 23.8885C7.86486 23.6326 7.86486 23.4052 7.98069 23.1493L9.38513 19.9226L13.1641 23.6611L9.87741 25.0114ZM4.1583 33H31.8272C32.4643 33 33 32.4741 33 31.8486C33 31.2232 32.4643 30.7115 31.8272 30.7115H4.1583C3.52124 30.7115 3 31.2232 3 31.8486C3 32.4741 3.52124 33 4.1583 33Z" fill="#F3F3F3"/>
</svg>
