<svg width="36" height="36" viewBox="0 0 36 36" fill="none" xmlns="http://www.w3.org/2000/svg">
<path d="M6.08218 27.2637H7.68747C8.05895 27.2637 8.21815 27.1974 8.51002 26.9586L9.3989 26.282L9.42544 26.3085C9.91631 26.7994 10.5797 26.8922 11.2563 26.6004L15.6609 24.7828C15.9925 24.6501 16.1517 24.5307 16.3508 24.3317L29.0472 11.7282C30.2942 10.4944 30.281 9.04829 29.0206 7.77467L26.2346 4.96209C24.961 3.70173 23.5149 3.6752 22.2678 4.90902L9.55811 17.5126C9.3591 17.6983 9.2397 17.8442 9.10703 18.1759L7.24967 22.5805C6.97106 23.2306 7.0374 23.8807 7.52827 24.3848L5.69744 26.3218C5.29944 26.733 5.49844 27.2637 6.08218 27.2637ZM23.6077 6.39491C23.9925 6.03671 24.4436 6.01017 24.8018 6.36838L27.6011 9.19422C27.9593 9.5657 27.9327 10.0168 27.5613 10.3882L26.5663 11.37L22.6127 7.38993L23.6077 6.39491ZM11.6145 18.3086L21.3656 8.62375L25.3192 12.6038L15.568 22.2886L11.6145 18.3086ZM11.0573 24.544C10.7919 24.6369 10.5929 24.6369 10.3541 24.3981L9.45197 23.4959C9.21317 23.2571 9.21317 23.0449 9.3193 22.806L10.6062 19.7945L14.0688 23.2837L11.0573 24.544ZM5.81684 32H31.1699C31.7536 32 32.2445 31.5091 32.2445 30.9254C32.2445 30.3416 31.7536 29.864 31.1699 29.864H5.81684C5.2331 29.864 4.75549 30.3416 4.75549 30.9254C4.75549 31.5091 5.2331 32 5.81684 32Z" fill="#333333"/>
</svg>
