<svg width="36" height="36" viewBox="0 0 36 36" fill="none" xmlns="http://www.w3.org/2000/svg">
<path d="M2.44828 29.4756C5.15188 33.1564 10.8207 34.1536 14.3383 31.5139C16.3151 30.0328 17.2744 27.9944 17.0564 25.9267C18.4518 25.6774 19.6873 24.9002 21.0391 23.5217C25.705 18.829 32.8274 8.31445 33.4524 7.43457C35.2839 4.86825 32.1442 1.73001 29.586 3.53377C28.7284 4.14968 18.2919 11.3207 13.6406 16.0574C12.2888 17.4359 11.5039 18.6824 11.2422 20.0902C10.1957 20.0462 9.13459 20.3835 8.18979 21.102C5.92226 22.8178 6.72171 25.2815 5.45712 26.2347C4.35243 27.0706 3.32041 26.6013 2.52096 27.2172C1.93954 27.6865 1.75058 28.537 2.44828 29.4756ZM30.7052 5.61615C31.1994 5.24953 31.7518 5.77746 31.3738 6.32005C31.0395 6.81865 25.2399 15.3535 20.7775 20.3688C20.1089 18.5797 18.539 16.9813 16.7802 16.3067C21.795 11.8193 30.1383 6.02676 30.7052 5.61615ZM15.7628 22.7738C15.0941 21.8646 14.3237 21.1754 13.5098 20.7354C13.626 19.8115 14.1348 18.9023 15.1232 17.8905C16.8529 18.0958 19.0042 20.2661 19.2222 22.0259C18.132 23.0818 17.2744 23.5364 16.3296 23.6537C16.1698 23.3604 15.9808 23.0671 15.7628 22.7738ZM5.41352 29.2409C5.22456 29.0356 5.23909 28.8303 5.36991 28.6983C5.57341 28.5077 6.38739 28.449 7.01242 27.8184C8.42236 26.4106 7.94269 24.3429 9.57066 23.0671C10.9225 21.9819 12.7975 22.3779 14.0621 24.0203C15.4866 25.8827 14.9924 28.1557 13.0301 29.6809C10.8352 31.426 7.44848 31.4113 5.41352 29.2409Z" fill="#333333"/>
</svg>
