<svg width="36" height="36" viewBox="0 0 36 36" fill="none" xmlns="http://www.w3.org/2000/svg">
<path d="M3.35605 28.7105C5.90183 32.146 11.2398 33.0767 14.552 30.613C16.4135 29.2306 17.3168 27.3281 17.1115 25.3983C18.4255 25.1656 19.5888 24.4402 20.8617 23.1536C25.2553 18.7737 31.9619 8.96015 32.5505 8.13893C34.275 5.7437 31.3186 2.81468 28.9097 4.49818C28.1022 5.07304 18.2749 11.766 13.895 16.1869C12.6222 17.4735 11.8831 18.6369 11.6367 19.9508C10.6512 19.9098 9.65207 20.2246 8.76242 20.8952C6.62724 22.4966 7.38003 24.796 6.18926 25.6857C5.14905 26.4658 4.17727 26.0279 3.42448 26.6027C2.877 27.0407 2.69907 27.8345 3.35605 28.7105ZM29.9636 6.44174C30.429 6.09956 30.9491 6.5923 30.5932 7.09872C30.2784 7.56407 24.8173 15.5299 20.6154 20.2109C19.9858 18.5411 18.5076 17.0492 16.8514 16.4196C21.5735 12.2313 29.4298 6.82498 29.9636 6.44174ZM15.8934 22.4556C15.2638 21.607 14.5383 20.9637 13.7719 20.5531C13.8814 19.6908 14.3604 18.8422 15.2911 17.8978C16.9199 18.0894 18.9456 20.1151 19.1509 21.7575C18.1243 22.743 17.3168 23.1673 16.4271 23.2768C16.2766 23.003 16.0987 22.7293 15.8934 22.4556ZM6.1482 28.4915C5.97027 28.2999 5.98395 28.1083 6.10714 27.9851C6.29876 27.8072 7.06523 27.7524 7.65377 27.1639C8.98141 25.8499 8.52974 23.9201 10.0627 22.7293C11.3356 21.7165 13.1012 22.086 14.292 23.6189C15.6333 25.3572 15.1679 27.4787 13.3202 28.9021C11.2535 30.5309 8.06438 30.5172 6.1482 28.4915Z" fill="#333333"/>
</svg>
