<svg width="36" height="36" viewBox="0 0 36 36" fill="none" xmlns="http://www.w3.org/2000/svg">
<path d="M5.96102 26.8516C8.14071 29.793 12.711 30.5899 15.547 28.4805C17.1407 27.2969 17.9141 25.668 17.7384 24.0157C18.8634 23.8164 19.8595 23.1953 20.9493 22.0938C24.711 18.3438 30.4532 9.94143 30.9571 9.23831C32.4337 7.18753 29.9024 4.67971 27.8399 6.12112C27.1485 6.61331 18.7345 12.3438 14.9845 16.1289C13.8946 17.2305 13.2618 18.2266 13.0509 19.3516C12.2071 19.3164 11.3516 19.586 10.5899 20.1602C8.76181 21.5313 9.40634 23.5 8.38681 24.2617C7.49618 24.9297 6.66415 24.5547 6.01962 25.0469C5.55087 25.4219 5.39852 26.1016 5.96102 26.8516ZM28.7423 7.78518C29.1407 7.49222 29.586 7.91409 29.2813 8.34768C29.0118 8.74612 24.336 15.5664 20.7384 19.5742C20.1993 18.1446 18.9337 16.8672 17.5157 16.3282C21.5587 12.7422 28.2852 8.11331 28.7423 7.78518ZM16.6954 21.4961C16.1563 20.7696 15.5352 20.2188 14.879 19.8672C14.9727 19.1289 15.3829 18.4024 16.1798 17.5938C17.5743 17.7578 19.3087 19.4922 19.4845 20.8985C18.6056 21.7422 17.9141 22.1055 17.1524 22.1992C17.0235 21.9649 16.8712 21.7305 16.6954 21.4961ZM8.35165 26.6641C8.19931 26.5 8.21102 26.336 8.31649 26.2305C8.48056 26.0782 9.13681 26.0313 9.64071 25.5274C10.7774 24.4024 10.3907 22.75 11.7032 21.7305C12.7931 20.8633 14.3048 21.1797 15.3243 22.4922C16.4727 23.9805 16.0743 25.7969 14.4923 27.0157C12.7227 28.4102 9.99227 28.3985 8.35165 26.6641Z" fill="#F3F3F3"/>
</svg>
