<svg width="36" height="36" viewBox="0 0 36 36" fill="none" xmlns="http://www.w3.org/2000/svg">
<path d="M19.1641 30.1836C24.0977 30.1836 27.3906 28.4375 27.3906 25.8594C27.3906 23.5508 25.4219 23.0352 25.4219 21.6758C25.4219 19.8008 32.2305 19.4258 32.2305 14.6094C32.2305 9.85156 27.3203 6.71094 20.0312 6.71094C10.457 6.71094 4 11.4922 4 18.6523C4 25.543 10.1289 30.1836 19.1641 30.1836ZM19.1641 28.1797C11.2305 28.1797 6.00391 24.3594 6.00391 18.6523C6.00391 12.6758 11.5586 8.71484 20.0312 8.71484C26.1836 8.71484 30.2266 11.1055 30.2266 14.6094C30.2266 18.6992 23.3711 18.1484 23.3711 21.6875C23.3711 23.6914 25.3867 24.3242 25.3867 25.707C25.3867 27.1953 22.9375 28.1797 19.1641 28.1797ZM20.1367 14.6094C21.2383 14.6094 22.1055 13.7305 22.1055 12.6289C22.1055 11.5391 21.2383 10.6602 20.1367 10.6602C19.0586 10.6602 18.1562 11.5391 18.1562 12.6289C18.1562 13.7305 19.0586 14.6094 20.1367 14.6094ZM14.207 16.5078C15.5547 16.5078 16.6562 15.418 16.6562 14.0352C16.6562 12.6875 15.543 11.6094 14.207 11.6094C12.8242 11.6094 11.7227 12.6875 11.7227 14.0352C11.7227 15.418 12.8242 16.5078 14.207 16.5078ZM25.4922 15.3594C26.3711 15.3594 27.0742 14.6445 27.0742 13.7539C27.0742 12.875 26.3711 12.1602 25.4922 12.1602C24.6016 12.1602 23.875 12.875 23.875 13.7539C23.875 14.6445 24.6016 15.3594 25.4922 15.3594ZM9.91797 20.2578C10.9961 20.2578 11.8633 19.3672 11.8633 18.2891C11.8633 17.2109 11.0078 16.3438 9.91797 16.3438C8.85156 16.3438 7.97266 17.2109 7.97266 18.2891C7.97266 19.3672 8.85156 20.2578 9.91797 20.2578ZM18.2031 25.4141C19.9844 25.4141 21.4492 23.9492 21.4492 22.1562C21.4492 20.3867 19.9844 18.9219 18.2031 18.9219C16.4219 18.9219 14.957 20.3867 14.957 22.1562C14.957 23.9492 16.4219 25.4141 18.2031 25.4141ZM18.2031 24.0547C17.1602 24.0547 16.3164 23.2109 16.3164 22.1562C16.3164 20.9961 17.207 20.3047 18.1797 20.293C19.1758 20.2812 20.0898 20.9609 20.0898 22.1562C20.0898 23.2109 19.2578 24.0547 18.2031 24.0547Z" fill="#F3F3F3"/>
</svg>
