<svg width="36" height="36" viewBox="0 0 36 36" fill="none" xmlns="http://www.w3.org/2000/svg">
<path d="M19.2632 33C25.2051 33 29.171 30.7683 29.171 27.4733C29.171 24.5227 26.7999 23.8637 26.7999 22.1263C26.7999 19.7299 35 19.2506 35 13.0949C35 7.01398 29.0863 3 20.3076 3C8.77667 3 1 9.11083 1 18.2621C1 27.0689 8.38149 33 19.2632 33ZM19.2632 30.4388C9.70818 30.4388 3.41345 25.5562 3.41345 18.2621C3.41345 10.6236 10.1034 5.56116 20.3076 5.56116C27.7173 5.56116 32.5866 8.61658 32.5866 13.0949C32.5866 18.322 24.33 17.6181 24.33 22.1413C24.33 24.7024 26.7576 25.5112 26.7576 27.2786C26.7576 29.1807 23.8078 30.4388 19.2632 30.4388ZM20.4346 13.0949C21.7613 13.0949 22.8057 11.9715 22.8057 10.5637C22.8057 9.17074 21.7613 8.04743 20.4346 8.04743C19.1362 8.04743 18.0494 9.17074 18.0494 10.5637C18.0494 11.9715 19.1362 13.0949 20.4346 13.0949ZM13.2931 15.5212C14.9161 15.5212 16.2428 14.1283 16.2428 12.361C16.2428 10.6385 14.902 9.26061 13.2931 9.26061C11.6276 9.26061 10.301 10.6385 10.301 12.361C10.301 14.1283 11.6276 15.5212 13.2931 15.5212ZM26.8846 14.0534C27.9431 14.0534 28.79 13.1398 28.79 12.0015C28.79 10.8782 27.9431 9.96455 26.8846 9.96455C25.812 9.96455 24.9369 10.8782 24.9369 12.0015C24.9369 13.1398 25.812 14.0534 26.8846 14.0534ZM8.12744 20.314C9.4259 20.314 10.4703 19.1757 10.4703 17.7978C10.4703 16.4199 9.44002 15.3115 8.12744 15.3115C6.84309 15.3115 5.78456 16.4199 5.78456 17.7978C5.78456 19.1757 6.84309 20.314 8.12744 20.314ZM18.1059 26.9041C20.2511 26.9041 22.0154 25.032 22.0154 22.7404C22.0154 20.4788 20.2511 18.6066 18.1059 18.6066C15.9606 18.6066 14.1963 20.4788 14.1963 22.7404C14.1963 25.032 15.9606 26.9041 18.1059 26.9041ZM18.1059 25.1667C16.8497 25.1667 15.8335 24.0884 15.8335 22.7404C15.8335 21.2576 16.9062 20.3739 18.0776 20.359C19.2773 20.344 20.3782 21.2127 20.3782 22.7404C20.3782 24.0884 19.3761 25.1667 18.1059 25.1667Z" fill="#F3F3F3"/>
</svg>
