<svg width="36" height="36" viewBox="0 0 36 36" fill="none" xmlns="http://www.w3.org/2000/svg">
<path d="M19.2511 32C25.1363 32 29.0644 29.9171 29.0644 26.8417C29.0644 24.0879 26.7159 23.4728 26.7159 21.8512C26.7159 19.6146 34.8378 19.1672 34.8378 13.4219C34.8378 7.74638 28.9805 4 20.2856 4C8.86471 4 1.16226 9.70344 1.16226 18.2446C1.16226 26.4643 8.4733 32 19.2511 32ZM19.2511 29.6096C9.78732 29.6096 3.55268 25.0524 3.55268 18.2446C3.55268 11.1153 10.1787 6.39041 20.2856 6.39041C27.6246 6.39041 32.4473 9.24214 32.4473 13.4219C32.4473 18.3005 24.2696 17.6435 24.2696 21.8652C24.2696 24.2556 26.674 25.0105 26.674 26.66C26.674 28.4353 23.7524 29.6096 19.2511 29.6096ZM20.4114 13.4219C21.7254 13.4219 22.7599 12.3734 22.7599 11.0594C22.7599 9.75936 21.7254 8.71093 20.4114 8.71093C19.1253 8.71093 18.0489 9.75936 18.0489 11.0594C18.0489 12.3734 19.1253 13.4219 20.4114 13.4219ZM13.338 15.6865C14.9456 15.6865 16.2596 14.3864 16.2596 12.7369C16.2596 11.1293 14.9316 9.84323 13.338 9.84323C11.6885 9.84323 10.3744 11.1293 10.3744 12.7369C10.3744 14.3864 11.6885 15.6865 13.338 15.6865ZM26.7998 14.3165C27.8482 14.3165 28.687 13.4638 28.687 12.4014C28.687 11.353 27.8482 10.5002 26.7998 10.5002C25.7374 10.5002 24.8707 11.353 24.8707 12.4014C24.8707 13.4638 25.7374 14.3165 26.7998 14.3165ZM8.22167 20.1598C9.50774 20.1598 10.5422 19.0974 10.5422 17.8113C10.5422 16.5252 9.52172 15.4908 8.22167 15.4908C6.94958 15.4908 5.90115 16.5252 5.90115 17.8113C5.90115 19.0974 6.94958 20.1598 8.22167 20.1598ZM18.1048 26.3105C20.2297 26.3105 21.977 24.5632 21.977 22.4244C21.977 20.3135 20.2297 18.5662 18.1048 18.5662C15.98 18.5662 14.2327 20.3135 14.2327 22.4244C14.2327 24.5632 15.98 26.3105 18.1048 26.3105ZM18.1048 24.689C16.8607 24.689 15.8542 23.6825 15.8542 22.4244C15.8542 21.0404 16.9166 20.2157 18.0769 20.2017C19.2651 20.1877 20.3555 20.9985 20.3555 22.4244C20.3555 23.6825 19.363 24.689 18.1048 24.689Z" fill="#333333"/>
</svg>
