<svg width="36" height="36" viewBox="0 0 36 36" fill="none" xmlns="http://www.w3.org/2000/svg">
<path d="M10.3545 32C11.0512 32 11.3921 31.6294 11.5107 31.0217L14.2084 17.2811H22.7759L25.4736 31.0217C25.5922 31.6294 25.9331 32 26.6298 32C27.6229 32 27.9638 31.3182 27.8008 30.5177L25.0289 16.4066C24.8511 15.4727 24.0655 14.7909 23.1613 14.7909H23.0872L19.7965 4.9783C19.5742 4.35574 19.1592 4 18.5218 4C17.8548 4 17.3953 4.35574 17.1878 4.9783L13.8971 14.7909H13.8378C12.9337 14.7909 12.1481 15.4727 11.9702 16.4066L9.19834 30.5177C9.03529 31.3182 9.39104 32 10.3545 32Z" fill="#333333"/>
</svg>
