<svg width="36" height="36" viewBox="0 0 36 36" fill="none" xmlns="http://www.w3.org/2000/svg">
<path d="M11.242 28.6328C11.7928 28.6328 12.0623 28.3398 12.1561 27.8594L14.2889 16.9961H21.0623L23.1952 27.8594C23.2889 28.3398 23.5584 28.6328 24.1092 28.6328C24.8944 28.6328 25.1639 28.0938 25.035 27.4609L22.8436 16.3047C22.703 15.5664 22.0819 15.0273 21.367 15.0273H21.3084L18.7069 7.26953C18.5311 6.77734 18.203 6.49609 17.6991 6.49609C17.1717 6.49609 16.8084 6.77734 16.6444 7.26953L14.0428 15.0273H13.9959C13.2811 15.0273 12.66 15.5664 12.5194 16.3047L10.328 27.4609C10.1991 28.0938 10.4803 28.6328 11.242 28.6328Z" fill="#F3F3F3"/>
</svg>
