<svg width="36" height="36" viewBox="0 0 36 36" fill="none" xmlns="http://www.w3.org/2000/svg">
<path d="M9.27869 33C10.0246 33 10.3896 32.603 10.5166 31.9518L13.405 17.2298H22.5782L25.4666 31.9518C25.5936 32.603 25.9586 33 26.7045 33C27.7678 33 28.1329 32.2695 27.9583 31.4119L24.9905 16.2927C24.8001 15.2922 23.9589 14.5617 22.9908 14.5617H22.9115L19.3882 4.04817C19.1502 3.38115 18.7058 3 18.0233 3C17.3092 3 16.8172 3.38115 16.595 4.04817L13.0717 14.5617H13.0083C12.0402 14.5617 11.199 15.2922 11.0086 16.2927L8.04079 31.4119C7.86621 32.2695 8.2471 33 9.27869 33Z" fill="#333333"/>
</svg>
