<svg width="36" height="36" viewBox="0 0 36 36" fill="none" xmlns="http://www.w3.org/2000/svg">
<path d="M8.37501 32C6.62501 32 4.875 30.2638 4.875 28.5V17.125C4.87501 16.2431 5.09376 15.5989 5.75 14.9375L16.25 4.66142C17.125 3.77947 18.875 3.77958 19.75 4.66142C20.625 5.54325 27.1875 11.9979 30.25 14.9375C30.9062 15.5938 31.125 16.2431 31.125 17.125L31.125 28.5C31.125 30.2638 29.375 32 27.625 32H25C23.25 32 21.5 30.2638 21.5 28.5V22.375C21.5 21.9341 21.0625 21.5 20.625 21.5H15.375C14.9375 21.5 14.5 21.9341 14.5 22.375V28.5C14.5 30.2638 12.75 32 11 32H8.37501Z" fill="#333333"/>
</svg>
