<svg width="36" height="36" viewBox="0 0 36 36" fill="none" xmlns="http://www.w3.org/2000/svg">
<path d="M7.73334 33C5.86667 33 4 31.1398 4 29.25V17.0625C4.00001 16.1176 4.23334 15.4274 4.93334 14.7188L16.1333 3.70866C17.0667 2.76372 18.9333 2.76384 19.8667 3.70866C20.8 4.65348 27.8 11.5691 31.0667 14.7188C31.7667 15.4219 32 16.1176 32 17.0625L32 29.25C32 31.1398 30.1333 33 28.2667 33H25.4667C23.6 33 21.7333 31.1398 21.7333 29.25V22.6875C21.7333 22.2151 21.2667 21.75 20.8 21.75H15.2C14.7333 21.75 14.2667 22.2151 14.2667 22.6875V29.25C14.2667 31.1398 12.4 33 10.5333 33H7.73334Z" fill="#F3F3F3"/>
</svg>
