<svg width="36" height="36" viewBox="0 0 36 36" fill="none" xmlns="http://www.w3.org/2000/svg">
<path d="M18 33C26.2059 33 33 26.1912 33 18C33 9.79412 26.1912 3 17.9853 3C9.79412 3 3 9.79412 3 18C3 26.1912 9.80882 33 18 33ZM13.8971 15.1618C13.8382 14.5882 13.5882 14.0735 13.1912 13.7059C14.4853 10.4265 16.5441 7.45588 19.2353 5.05882C19.4412 5.07353 19.6471 5.10294 19.8529 5.13235C17.9265 8.38235 16.7647 12.0294 16.4853 15.8088C15.6029 15.6618 14.7353 15.4412 13.8971 15.1618ZM7.11765 10.9412C9.22059 7.73529 12.7059 5.47059 16.6765 5.05882C14.4412 7.39706 12.7059 10.1176 11.5294 13.0735C11.1176 13.0735 10.6765 13.2206 10.2941 13.4706C9.14706 12.7647 8.07353 11.9118 7.11765 10.9412ZM20.75 11.1176C20.7647 12.4559 20.9265 13.7794 21.2353 15.0588C20.9706 15.3235 20.7794 15.6618 20.6765 16.0294C20.3088 16.0588 19.9412 16.0735 19.5588 16.0735C19.1176 16.0735 18.6765 16.0588 18.25 16.0294C18.5 12.4265 19.6029 8.98529 21.4412 5.94118C20.9559 7.60294 20.7353 9.33824 20.75 11.1176ZM22.5294 11.1029C22.5147 9.41176 22.75 7.72059 23.25 6.13235C26.1324 7.42647 28.4853 9.76471 29.8088 12.6324C28.2647 13.8088 26.5294 14.6912 24.6765 15.2794C24.2794 14.7353 23.6324 14.3824 22.8971 14.3676C22.6765 13.3088 22.5441 12.2206 22.5294 11.1029ZM5 18C5 16.0735 5.42647 14.25 6.20588 12.5882C7.16176 13.5 8.20588 14.3088 9.33824 14.9853C9.30882 15.1029 9.30882 15.2353 9.30882 15.3676C9.30882 16.1471 9.69118 16.8382 10.2941 17.2647C9.98529 18.7941 9.82353 20.3824 9.82353 21.9853C8.13235 21.1618 6.51471 20.1176 5.02941 18.8676C5.01471 18.5735 5 18.2941 5 18ZM31 18C31 19.2647 30.8088 20.5 30.4559 21.6618C29.6029 22.1176 28.7206 22.5147 27.8088 22.8529C26.3971 21.5735 25.2206 20.0441 24.3382 18.3529C24.7353 18.0147 25 17.5441 25.1029 17.0147C27.0147 16.4265 28.8235 15.5441 30.4706 14.3676C30.8088 15.5294 31 16.75 31 18ZM16.4118 17.6912C16.4118 19.6029 16.6324 21.4853 17.0588 23.3235C16.8088 23.5147 16.6029 23.7647 16.4559 24.0441C14.8088 23.7941 13.1765 23.3676 11.6029 22.7647C11.5588 21.0147 11.6912 19.2941 12.0294 17.6324C12.5588 17.5294 13.0147 17.25 13.3529 16.8529C14.3382 17.1912 15.3676 17.4412 16.4118 17.6029C16.4118 17.6324 16.4118 17.6618 16.4118 17.6912ZM19.5588 17.8529C20.0294 17.8529 20.4853 17.8382 20.9265 17.7941C21.2794 18.3824 21.8971 18.7941 22.6176 18.8824C23.4559 20.5735 24.5735 22.1324 25.9118 23.4706C24.1765 23.9559 22.4118 24.2206 20.6324 24.2794C20.3235 23.5 19.6176 22.9412 18.7647 22.8382C18.3971 21.2059 18.1912 19.5147 18.1912 17.8088C18.6471 17.8382 19.1029 17.8529 19.5588 17.8529ZM5.48529 21.4853C6.86765 22.4706 8.33824 23.3088 9.88235 23.9706C9.94118 25.5441 10.1765 27.1029 10.5882 28.6324C8.14706 26.9118 6.30882 24.3971 5.48529 21.4853ZM18 31C16.1912 31 14.4412 30.6176 12.8676 29.9118C12.25 28.2353 11.8529 26.4853 11.7059 24.6912C13.2059 25.2059 14.7353 25.5882 16.3088 25.8088C16.5882 26.7059 17.4118 27.3529 18.3971 27.3971C18.8971 28.5735 19.5 29.7206 20.1912 30.8088C19.4706 30.9265 18.75 31 18 31ZM20.0735 26.7794C20.2794 26.5735 20.4559 26.3235 20.5735 26.0588C22.8971 25.9853 25.2206 25.6029 27.4559 24.8676C27.7794 25.1324 28.1324 25.3824 28.4706 25.6324C26.8676 27.8088 24.6176 29.4853 22 30.3529C21.25 29.2206 20.6029 28.0147 20.0735 26.7794Z" fill="#333333"/>
</svg>
