<svg width="36" height="36" viewBox="0 0 36 36" fill="none" xmlns="http://www.w3.org/2000/svg">
<path d="M18 32C25.6588 32 32 25.6451 32 18C32 10.3412 25.6451 4 17.9863 4C10.3412 4 4 10.3412 4 18C4 25.6451 10.3549 32 18 32ZM14.1706 15.351C14.1157 14.8157 13.8824 14.3353 13.5118 13.9922C14.7196 10.9314 16.6412 8.15882 19.1529 5.92157C19.3451 5.93529 19.5373 5.96275 19.7294 5.9902C17.9314 9.02353 16.8471 12.4275 16.5863 15.9549C15.7627 15.8176 14.9529 15.6118 14.1706 15.351ZM7.84314 11.4118C9.80588 8.41961 13.0588 6.30588 16.7647 5.92157C14.6784 8.10392 13.0588 10.6431 11.9608 13.402C11.5765 13.402 11.1647 13.5392 10.8078 13.7725C9.73726 13.1137 8.73529 12.3176 7.84314 11.4118ZM20.5667 11.5765C20.5804 12.8255 20.7314 14.0608 21.0196 15.2549C20.7725 15.502 20.5941 15.8176 20.498 16.1608C20.1549 16.1882 19.8118 16.202 19.4549 16.202C19.0431 16.202 18.6314 16.1882 18.2333 16.1608C18.4667 12.798 19.4961 9.58627 21.2118 6.7451C20.7588 8.29608 20.5529 9.91569 20.5667 11.5765ZM22.2275 11.5627C22.2137 9.98431 22.4333 8.40588 22.9 6.92353C25.5902 8.13137 27.7863 10.3137 29.0216 12.9902C27.5804 14.0882 25.9608 14.9118 24.2314 15.4608C23.8608 14.9529 23.2569 14.6235 22.5706 14.6098C22.3647 13.6216 22.2412 12.6059 22.2275 11.5627ZM5.86667 18C5.86667 16.202 6.26471 14.5 6.99216 12.949C7.88431 13.8 8.85882 14.5549 9.91569 15.1863C9.88824 15.2961 9.88824 15.4196 9.88824 15.5431C9.88824 16.2706 10.2451 16.9157 10.8078 17.3137C10.5196 18.7412 10.3686 20.2235 10.3686 21.7196C8.7902 20.951 7.28039 19.9765 5.89412 18.8098C5.88039 18.5353 5.86667 18.2745 5.86667 18ZM30.1333 18C30.1333 19.1804 29.9549 20.3333 29.6255 21.4176C28.8294 21.8431 28.0059 22.2137 27.1549 22.5294C25.8373 21.3353 24.7392 19.9078 23.9157 18.3294C24.2863 18.0137 24.5333 17.5745 24.6294 17.0804C26.4137 16.5314 28.102 15.7078 29.6392 14.6098C29.9549 15.6941 30.1333 16.8333 30.1333 18ZM16.5176 17.7118C16.5176 19.4961 16.7235 21.2529 17.1216 22.9686C16.8882 23.1471 16.6961 23.3804 16.5588 23.6412C15.0216 23.4078 13.498 23.0098 12.0294 22.4471C11.9882 20.8137 12.1118 19.2078 12.4275 17.6569C12.9216 17.5608 13.3471 17.3 13.6627 16.9294C14.5824 17.2451 15.5431 17.4784 16.5176 17.6294C16.5176 17.6569 16.5176 17.6843 16.5176 17.7118ZM19.4549 17.8627C19.8941 17.8627 20.3196 17.849 20.7314 17.8078C21.0608 18.3569 21.6373 18.7412 22.3098 18.8235C23.0922 20.402 24.1353 21.8569 25.3843 23.1059C23.7647 23.5588 22.1176 23.8059 20.4569 23.8608C20.1686 23.1333 19.5098 22.6118 18.7137 22.5157C18.3706 20.9922 18.1784 19.4137 18.1784 17.8216C18.6039 17.849 19.0294 17.8627 19.4549 17.8627ZM6.31961 21.2529C7.6098 22.1725 8.98235 22.9549 10.4235 23.5725C10.4784 25.0412 10.698 26.4961 11.0824 27.9235C8.80392 26.3176 7.08824 23.9706 6.31961 21.2529ZM18 30.1333C16.3118 30.1333 14.6784 29.7765 13.2098 29.1176C12.6333 27.5529 12.2627 25.9196 12.1255 24.2451C13.5255 24.7255 14.9529 25.0824 16.4216 25.2882C16.6824 26.1255 17.451 26.7294 18.3706 26.7706C18.8373 27.8686 19.4 28.9392 20.0451 29.9549C19.3725 30.0647 18.7 30.1333 18 30.1333ZM19.9353 26.1941C20.1275 26.002 20.2922 25.7686 20.402 25.5216C22.5706 25.4529 24.7392 25.0961 26.8255 24.4098C27.1275 24.6569 27.4569 24.8902 27.7726 25.1235C26.2765 27.1549 24.1765 28.7196 21.7333 29.5294C21.0333 28.4726 20.4294 27.3471 19.9353 26.1941Z" fill="#333333"/>
</svg>
