<svg width="36" height="36" viewBox="0 0 36 36" fill="none" xmlns="http://www.w3.org/2000/svg">
<path d="M17.9531 29.5117C24.4922 29.5117 29.9062 24.0859 29.9062 17.5586C29.9062 11.0195 24.4805 5.60547 17.9414 5.60547C11.4141 5.60547 6 11.0195 6 17.5586C6 24.0859 11.4258 29.5117 17.9531 29.5117ZM14.6836 15.2969C14.6367 14.8398 14.4375 14.4297 14.1211 14.1367C15.1523 11.5234 16.793 9.15625 18.9375 7.24609C19.1016 7.25781 19.2656 7.28125 19.4297 7.30469C17.8945 9.89453 16.9688 12.8008 16.7461 15.8125C16.043 15.6953 15.3516 15.5195 14.6836 15.2969ZM9.28125 11.9336C10.957 9.37891 13.7344 7.57422 16.8984 7.24609C15.1172 9.10938 13.7344 11.2773 12.7969 13.6328C12.4688 13.6328 12.1172 13.75 11.8125 13.9492C10.8984 13.3867 10.043 12.707 9.28125 11.9336ZM20.1445 12.0742C20.1562 13.1406 20.2852 14.1953 20.5312 15.2148C20.3203 15.4258 20.168 15.6953 20.0859 15.9883C19.793 16.0117 19.5 16.0234 19.1953 16.0234C18.8438 16.0234 18.4922 16.0117 18.1523 15.9883C18.3516 13.1172 19.2305 10.375 20.6953 7.94922C20.3086 9.27344 20.1328 10.6562 20.1445 12.0742ZM21.5625 12.0625C21.5508 10.7148 21.7383 9.36719 22.1367 8.10156C24.4336 9.13281 26.3086 10.9961 27.3633 13.2812C26.1328 14.2188 24.75 14.9219 23.2734 15.3906C22.957 14.957 22.4414 14.6758 21.8555 14.6641C21.6797 13.8203 21.5742 12.9531 21.5625 12.0625ZM7.59375 17.5586C7.59375 16.0234 7.93359 14.5703 8.55469 13.2461C9.31641 13.9727 10.1484 14.6172 11.0508 15.1562C11.0273 15.25 11.0273 15.3555 11.0273 15.4609C11.0273 16.082 11.332 16.6328 11.8125 16.9727C11.5664 18.1914 11.4375 19.457 11.4375 20.7344C10.0898 20.0781 8.80078 19.2461 7.61719 18.25C7.60547 18.0156 7.59375 17.793 7.59375 17.5586ZM28.3125 17.5586C28.3125 18.5664 28.1602 19.5508 27.8789 20.4766C27.1992 20.8398 26.4961 21.1562 25.7695 21.4258C24.6445 20.4062 23.707 19.1875 23.0039 17.8398C23.3203 17.5703 23.5312 17.1953 23.6133 16.7734C25.1367 16.3047 26.5781 15.6016 27.8906 14.6641C28.1602 15.5898 28.3125 16.5625 28.3125 17.5586ZM16.6875 17.3125C16.6875 18.8359 16.8633 20.3359 17.2031 21.8008C17.0039 21.9531 16.8398 22.1523 16.7227 22.375C15.4102 22.1758 14.1094 21.8359 12.8555 21.3555C12.8203 19.9609 12.9258 18.5898 13.1953 17.2656C13.6172 17.1836 13.9805 16.9609 14.25 16.6445C15.0352 16.9141 15.8555 17.1133 16.6875 17.2422C16.6875 17.2656 16.6875 17.2891 16.6875 17.3125ZM19.1953 17.4414C19.5703 17.4414 19.9336 17.4297 20.2852 17.3945C20.5664 17.8633 21.0586 18.1914 21.6328 18.2617C22.3008 19.6094 23.1914 20.8516 24.2578 21.918C22.875 22.3047 21.4688 22.5156 20.0508 22.5625C19.8047 21.9414 19.2422 21.4961 18.5625 21.4141C18.2695 20.1133 18.1055 18.7656 18.1055 17.4062C18.4688 17.4297 18.832 17.4414 19.1953 17.4414ZM7.98047 20.3359C9.08203 21.1211 10.2539 21.7891 11.4844 22.3164C11.5312 23.5703 11.7188 24.8125 12.0469 26.0312C10.1016 24.6602 8.63672 22.6562 7.98047 20.3359ZM17.9531 27.918C16.5117 27.918 15.1172 27.6133 13.8633 27.0508C13.3711 25.7148 13.0547 24.3203 12.9375 22.8906C14.1328 23.3008 15.3516 23.6055 16.6055 23.7812C16.8281 24.4961 17.4844 25.0117 18.2695 25.0469C18.668 25.9844 19.1484 26.8984 19.6992 27.7656C19.125 27.8594 18.5508 27.918 17.9531 27.918ZM19.6055 24.5547C19.7695 24.3906 19.9102 24.1914 20.0039 23.9805C21.8555 23.9219 23.707 23.6172 25.4883 23.0312C25.7461 23.2422 26.0273 23.4414 26.2969 23.6406C25.0195 25.375 23.2266 26.7109 21.1406 27.4023C20.543 26.5 20.0273 25.5391 19.6055 24.5547Z" fill="#F3F3F3"/>
</svg>
